<svg aria-hidden="true" style="position: absolute; width: 0; height: 0; overflow: hidden;" version="1.1" xmlns="http://www.w3.org/2000/svg" xmlns:xlink="http://www.w3.org/1999/xlink">
<defs>
<symbol id="star" viewBox="0 0 32 32">
<path stroke-linejoin="miter" stroke-linecap="butt" stroke-miterlimit="4" stroke-width="2.4" d="M12.4 9.394l3.6-6.822 3.6 6.822c0.318 0.604 0.9 1.024 1.57 1.14l7.6 1.316-5.376 5.532c-0.385 0.396-0.622 0.937-0.622 1.533 0 0.11 0.008 0.219 0.024 0.325l-0.001-0.012 1.1 7.636-6.924-3.404c-0.283-0.142-0.617-0.225-0.97-0.225s-0.687 0.083-0.983 0.231l0.013-0.006-6.924 3.404 1.1-7.636c0.014-0.094 0.022-0.202 0.022-0.313 0-0.596-0.237-1.138-0.623-1.534l0.001 0-5.378-5.532 7.6-1.314c0.687-0.122 1.254-0.547 1.566-1.13l0.006-0.012z"></path>
</symbol>
<symbol id="icon-freezer" viewBox="0 0 32 32">
<path stroke-linejoin="round" stroke-linecap="round" stroke-miterlimit="4" stroke-width="2.0800" d="M23.4 3h-14.794c-1.104 0-2 0.896-2 2v20.387c0 1.104 0.896 2 2 2h14.794c1.104 0 2-0.896 2-2v-20.387c0-1.104-0.896-2-2-2z"></path>
<path stroke-linejoin="round" stroke-linecap="round" stroke-miterlimit="4" stroke-width="2.0800" d="M6.608 13.126h18.784M10.314 10.566v-4.038M10.314 19.442v-4.042M8.426 27.387v0.699c0 0 0 0.001 0 0.002 0 0.502 0.406 0.909 0.907 0.912h1.648c0.504 0 0.912-0.408 0.912-0.912v0-0.701M20.101 27.387v0.699c0 0 0 0.001 0 0.002 0 0.504 0.408 0.912 0.912 0.912 0 0 0 0 0 0h1.654c0.504 0 0.912-0.408 0.912-0.912v0-0.701"></path>
</symbol>
<symbol id="icon-radio" viewBox="0 0 32 32">
<path stroke-linejoin="miter" stroke-linecap="butt" stroke-miterlimit="4" stroke-width="2.0800" d="M2.667 18.667c0-5.029 0-7.544 1.562-9.104 1.563-1.563 4.077-1.563 9.104-1.563h5.333c5.029 0 7.544 0 9.104 1.563 1.563 1.56 1.563 4.075 1.563 9.104 0 5.027 0 7.542-1.562 9.104s-4.077 1.562-9.104 1.562h-5.336c-5.027 0-7.542 0-9.104-1.562s-1.562-4.077-1.562-9.104z"></path>
<path stroke-linejoin="miter" stroke-linecap="butt" stroke-miterlimit="4" stroke-width="2.0800" d="M6.667 14.667c0-1.472 1.192-2.665 2.664-2.667h13.335c0.019-0.001 0.042-0.001 0.065-0.001 1.473 0 2.667 1.194 2.667 2.667s-1.194 2.667-2.667 2.667c-0.023 0-0.046-0-0.069-0.001l0.003 0h-13.334c-1.473 0-2.666-1.193-2.667-2.665v-0zM12 22.667c0 1.105-0.895 2-2 2s-2-0.895-2-2v0c0-1.105 0.895-2 2-2s2 0.895 2 2v0z"></path>
<path stroke-linejoin="miter" stroke-linecap="round" stroke-miterlimit="4" stroke-width="2.0800" d="M20 15.333v2M17.333 22.667h6.667M8.666 8l11.334-5.333"></path>
</symbol>
<symbol id="icon-toilet" viewBox="0 0 32 32">
<path d="M24 4c1.939 0 3.269 1.648 4.040 3.312 0.762 1.654 1.224 3.811 1.286 6.147l0.006 0.541v12.667c0 0.001 0 0.002 0 0.003 0 0.735-0.596 1.331-1.331 1.331-0.019 0-0.038-0-0.057-0.001l0.003 0-0.166-0.019-3.781-0.629-3.781 0.629c-0.066 0.012-0.142 0.018-0.22 0.018-0.093 0-0.184-0.010-0.272-0.028l0.009 0.002-0.157-0.042-3.579-1.192-3.579 1.192c-0.126 0.043-0.27 0.068-0.421 0.068-0.68 0-1.241-0.509-1.323-1.167l-0.001-0.006-0.010-0.16v-3.902c-0.709 0.734-1.595 1.237-2.667 1.237-1.939 0-3.269-1.648-4.040-3.312-0.819-1.781-1.293-4.147-1.293-6.688s0.472-4.907 1.293-6.688c0.736-1.59 1.981-3.163 3.779-3.301l0.261-0.011h16zM24 6.667h-12.291c0.12 0.213 0.23 0.429 0.33 0.646 0.821 1.779 1.296 4.144 1.296 6.686v10.816l2.245-0.747c0.126-0.043 0.27-0.068 0.421-0.068s0.295 0.025 0.43 0.071l-0.009-0.003 3.688 1.229 3.672-0.613c0.066-0.012 0.142-0.018 0.219-0.018s0.153 0.007 0.227 0.019l-0.008-0.001 2.448 0.408v-11.093c0-2.245-0.424-4.213-1.050-5.568-0.677-1.472-1.347-1.765-1.618-1.765zM8 6.667c-0.272 0-0.941 0.293-1.616 1.763-0.629 1.357-1.051 3.325-1.051 5.57s0.422 4.213 1.050 5.568c0.677 1.472 1.347 1.765 1.618 1.765 0.272 0 0.939-0.293 1.616-1.763 0.627-1.357 1.051-3.325 1.051-5.57s-0.424-4.213-1.050-5.568c-0.678-1.472-1.347-1.766-1.618-1.766zM8 11.333c0.736 0 1.333 1.194 1.333 2.667 0 1.472-0.597 2.667-1.333 2.667s-1.333-1.194-1.333-2.667c0-1.472 0.597-2.667 1.333-2.667z"></path>
</symbol>
<symbol id="icon-hob" viewBox="0 0 32 32">
<path fill="none" stroke="#101828" style="stroke: var(--color1, #101828)" stroke-linejoin="miter" stroke-linecap="butt" stroke-miterlimit="4" stroke-width="2.4" d="M12 6.667h16c0.736 0 1.333 0.597 1.333 1.333v0 17.333c0 0 0 0.001 0 0.002 0 0.736-0.597 1.333-1.333 1.333h-16M12 6.667h-8c-0.736 0-1.333 0.597-1.333 1.333v0 17.333c0 0 0 0.001 0 0.002 0 0.736 0.597 1.333 1.333 1.333h8M12 6.667v20"></path>
<path fill="none" stroke="#101828" style="stroke: var(--color1, #101828)" stroke-linejoin="round" stroke-linecap="round" stroke-miterlimit="4" stroke-width="2.4" d="M7.333 11.333v2.667M24.667 10.667l-8 11.333"></path>
<path d="M8.667 18c0-0.737-0.597-1.334-1.334-1.334s-1.334 0.597-1.334 1.334v0c0 0.737 0.597 1.334 1.334 1.334s1.334-0.597 1.334-1.334v0zM8.667 22c0-0.737-0.597-1.334-1.334-1.334s-1.334 0.597-1.334 1.334v0c0 0.737 0.597 1.334 1.334 1.334s1.334-0.597 1.334-1.334v0z"></path>
</symbol>
<symbol id="icon-CD" viewBox="0 0 32 32">
<path stroke-linejoin="miter" stroke-linecap="butt" stroke-miterlimit="4" stroke-width="2.4" d="M16 28c6.627 0 12-5.373 12-12s-5.373-12-12-12v0c-6.627 0-12 5.373-12 12s5.373 12 12 12v0z"></path>
<path stroke-linejoin="miter" stroke-linecap="round" stroke-miterlimit="4" stroke-width="2.4" d="M8.667 16c0-4.050 3.283-7.333 7.333-7.333v0"></path>
<path stroke-linejoin="miter" stroke-linecap="butt" stroke-miterlimit="4" stroke-width="2.4" d="M16 19.333c1.841 0 3.333-1.492 3.333-3.333s-1.492-3.333-3.333-3.333v0c-1.841 0-3.333 1.492-3.333 3.333s1.492 3.333 3.333 3.333v0z"></path>
</symbol>
<symbol id="icon-airConditioner" viewBox="0 0 32 32">
<path stroke-linejoin="round" stroke-linecap="round" stroke-miterlimit="4" stroke-width="2.4" d="M28.571 1.142h-25.142c-1.263 0-2.286 1.024-2.286 2.286v0 11.429c0.001 1.262 1.024 2.285 2.286 2.285h25.142c0 0 0.001 0 0.002 0 1.262 0 2.285-1.023 2.285-2.285v0-11.429c0-0 0-0.001 0-0.002 0-1.262-1.023-2.285-2.285-2.285-0.001 0-0.001 0-0.002 0h0z"></path>
<path stroke-linejoin="round" stroke-linecap="round" stroke-miterlimit="4" stroke-width="2.4" d="M25.142 17.142v-4.571c0-1.262-1.023-2.285-2.285-2.285h-13.715c-1.261 0.001-2.284 1.023-2.285 2.285v4.571M5.714 28.571h0.229c1.767 0 3.2-1.433 3.2-3.2v0-2.514M26.286 28.571h-0.229c-1.767 0-3.2-1.433-3.2-3.2v0-2.514M16 30.858v-8"></path>
</symbol>
<symbol id="icon-gas" viewBox="0 0 32 32">
<path d="M25.072 13.992c-0.368-0.454-0.816-0.848-1.232-1.24-1.072-0.906-2.288-1.557-3.312-2.509-2.384-2.206-2.912-5.848-1.392-8.643-1.52 0.347-2.848 1.133-3.982 1.995-4.144 3.142-5.776 8.688-3.824 13.448 0.064 0.152 0.128 0.304 0.128 0.499 0 0.333-0.24 0.635-0.56 0.755-0.368 0.152-0.752 0.061-1.056-0.181-0.090-0.070-0.165-0.155-0.222-0.252l-0.002-0.004c-1.808-2.162-2.096-5.259-0.88-7.738-2.67 2.054-4.126 5.531-3.918 8.81 0.096 0.755 0.192 1.512 0.464 2.267 0.224 0.906 0.656 1.813 1.136 2.614 1.728 2.614 4.72 4.488 7.936 4.864 3.422 0.41 7.085-0.179 9.709-2.416 2.928-2.509 3.952-6.528 2.448-9.974l-0.208-0.392c-0.336-0.696-1.232-1.904-1.232-1.904zM20.016 23.512c-0.448 0.362-1.184 0.755-1.76 0.906-1.792 0.605-3.582-0.24-4.638-1.238 1.904-0.422 3.040-1.752 3.376-3.098 0.272-1.21-0.24-2.206-0.448-3.37-0.192-1.12-0.16-2.070 0.272-3.114 0.304 0.574 0.624 1.149 1.008 1.602 1.232 1.512 3.168 2.176 3.584 4.232 0.064 0.211 0.096 0.422 0.096 0.65 0.048 1.238-0.528 2.598-1.488 3.43z"></path>
</symbol>
<symbol id="icon-water" viewBox="0 0 32 32">
<path stroke-linejoin="miter" stroke-linecap="butt" stroke-miterlimit="10" stroke-width="2.4" d="M25 20c0 5.523-3.477 9-9 9s-9-3.477-9-9c0-5.926 6.451-13.928 8.432-16.243 0.138-0.16 0.342-0.261 0.569-0.261s0.43 0.101 0.568 0.26l0.001 0.001c1.979 2.315 8.43 10.317 8.43 16.243z"></path>
<path stroke-linejoin="round" stroke-linecap="round" stroke-miterlimit="4" stroke-width="2.4" d="M21.501 20.501c0 2.485-2.014 4.499-4.499 4.499-0.001 0-0.001 0-0.002 0h0"></path>
</symbol>
<symbol id="icon-microwave" viewBox="0 0 32 32">
<path stroke-linejoin="round" stroke-linecap="round" stroke-miterlimit="4" stroke-width="2.24" d="M29.714 5.714h-27.426c-0 0-0.001 0-0.002 0-0.631 0-1.142 0.511-1.142 1.142 0 0.001 0 0.001 0 0.002v-0 18.285c0 0 0 0.001 0 0.002 0 0.631 0.511 1.142 1.142 1.142 0.001 0 0.001 0 0.002 0h27.424c0 0 0.001 0 0.002 0 0.631 0 1.142-0.511 1.142-1.142 0-0.001 0-0.001 0-0.002v0-18.285c0-0.632-0.512-1.144-1.144-1.144v0z"></path>
<path stroke-linejoin="round" stroke-linecap="round" stroke-miterlimit="4" stroke-width="2.24" d="M25.142 11.429h1.144M25.142 16h1.144M19.429 10.286h-12.571c-0 0-0.001 0-0.002 0-0.631 0-1.142 0.511-1.142 1.142 0 0 0 0 0 0v0 9.142c0.001 0.631 0.513 1.142 1.144 1.142h12.571c0.631 0 1.142-0.511 1.142-1.142v-9.142c0-0.631-0.511-1.142-1.142-1.142v0z"></path>
</symbol>
<symbol id="icon-liconocation" viewBox="0 0 32 32">
<path stroke-linejoin="round" stroke-linecap="round" stroke-miterlimit="4" stroke-width="2.4" d="M28 13.333c0 9.334-12 17.334-12 17.334s-12-8-12-17.334c0-6.627 5.373-12 12-12s12 5.373 12 12v0z"></path>
<path stroke-linejoin="round" stroke-linecap="round" stroke-miterlimit="4" stroke-width="2.4" d="M16 17.333c2.209 0 4-1.791 4-4s-1.791-4-4-4v0c-2.209 0-4 1.791-4 4s1.791 4 4 4v0z"></path>
</symbol>
<symbol id="icon-van" viewBox="0 0 32 32">
<path d="M1.826 6.060h8.686c0 0 0 0 0.001 0 0.075 0 0.144-0.030 0.194-0.079l-0 0 0.834-0.813c0.233-0.228 0.551-0.368 0.903-0.368 0.002 0 0.003 0 0.005 0h13.172c0.003 0 0.006-0 0.009-0 0.626 0 1.178 0.312 1.511 0.789l0.004 0.006 1.578 2.31c0.224 0.328 0.245 0.747 0.054 1.094-0.191 0.338-0.548 0.563-0.958 0.563-0.002 0-0.004 0-0.007-0h-6.788v0.67h3.477c0.004-0 0.010-0 0.015-0 0.93 0 1.73 0.553 2.091 1.347l0.006 0.014 2.036 4.654 1.784 0.696c0.952 0.372 1.567 1.258 1.567 2.259v4.31c0 0.643-0.536 1.166-1.195 1.166h-2.075c-0.241 1.426-1.514 2.519-3.045 2.519s-2.805-1.093-3.045-2.52h-11.342c-0.242 1.428-1.515 2.52-3.046 2.52s-2.803-1.093-3.045-2.52h-4.144c-0.587 0-1.063-0.464-1.063-1.035v-15.805c0-0.982 0.818-1.781 1.826-1.781zM25.685 26.216c1.146 0 2.078-0.91 2.078-2.028s-0.933-2.027-2.078-2.027c-1.146 0-2.078 0.91-2.078 2.027s0.932 2.028 2.078 2.028zM21.024 23.696h1.615l0.014-0.073 0.010-0.050c0.008-0.038 0.018-0.077 0.027-0.115l0.006-0.024c0.012-0.046 0.025-0.090 0.040-0.136 0.003-0.013 0.008-0.026 0.013-0.039 0.024-0.072 0.041-0.119 0.060-0.167l-0.008 0.023 0.033-0.080 0.024-0.053 0.034-0.076 0.026-0.053 0.038-0.072 0.028-0.052 0.042-0.070 0.030-0.050 0.046-0.070 0.031-0.046c0.018-0.025 0.035-0.050 0.054-0.074l0.028-0.038c0.062-0.079 0.121-0.148 0.182-0.215l-0.002 0.003 0.030-0.030 0.067-0.070 0.040-0.037c0.052-0.051 0.107-0.1 0.164-0.147l0.005-0.004 0.046-0.036c0.029-0.024 0.066-0.052 0.103-0.079l0.009-0.007 0.068-0.047 0.048-0.032c0.024-0.016 0.048-0.030 0.073-0.046l0.048-0.029c0.026-0.016 0.054-0.030 0.081-0.046l0.042-0.024c0.018-0.010 0.057-0.030 0.096-0.049l0.023-0.010 0.009-0.004c0.043-0.021 0.086-0.040 0.13-0.058 0.014-0.006 0.029-0.011 0.042-0.017l0.091-0.035 0.052-0.018c0.097-0.035 0.22-0.070 0.345-0.097l0.021-0.004 0.061-0.013c0.061-0.013 0.141-0.025 0.222-0.034l0.013-0.001 0.058-0.006 0.1-0.008c0.016 0 0.033-0.002 0.050-0.002 0.045-0.003 0.098-0.004 0.151-0.004s0.106 0.001 0.159 0.004l-0.007-0c0.016 0 0.032 0.002 0.050 0.003 0.033 0.002 0.066 0.004 0.1 0.008 0.019 0.001 0.038 0.004 0.058 0.006 0.115 0.012 0.216 0.029 0.314 0.051l-0.018-0.003c0.146 0.031 0.268 0.065 0.388 0.107l-0.021-0.006 0.052 0.018 0.091 0.035 0.042 0.016c0.044 0.018 0.088 0.038 0.13 0.058l0.009 0.004c0.040 0.019 0.079 0.038 0.118 0.059l0.042 0.023c0.028 0.014 0.055 0.030 0.082 0.046l0.048 0.029 0.072 0.046 0.049 0.032 0.068 0.048c0.045 0.032 0.081 0.059 0.117 0.088l-0.004-0.003 0.046 0.036c0.062 0.053 0.117 0.102 0.171 0.152l-0.002-0.002 0.040 0.037 0.067 0.070 0.030 0.030c0.032 0.034 0.062 0.069 0.092 0.104l0.012 0.014c0.026 0.031 0.051 0.062 0.076 0.094l0.028 0.038 0.054 0.074 0.031 0.046 0.046 0.070 0.030 0.050 0.041 0.070 0.029 0.052 0.038 0.072 0.026 0.053c0.012 0.026 0.024 0.050 0.034 0.076l0.024 0.052c0.014 0.030 0.032 0.073 0.048 0.117l0.004 0.014 0.033 0.094 0.014 0.040c0.014 0.045 0.027 0.090 0.040 0.136l0.006 0.024c0.010 0.038 0.018 0.076 0.026 0.114l0.010 0.050 0.014 0.073h2.074c0.001 0 0.002 0 0.002 0 0.101 0 0.183-0.081 0.184-0.181v-2.063h-0.787v-0.984h0.787v-1.264c0-0.596-0.366-1.124-0.934-1.346l-1.888-0.736h-7.146v6.574zM21.024 16.138h6.48l-1.818-4.158c-0.206-0.454-0.655-0.763-1.176-0.763-0.003 0-0.006 0-0.009 0h-3.476v4.921zM8.252 26.216c1.146 0 2.078-0.91 2.078-2.028s-0.932-2.027-2.078-2.027c-0.036 0-0.071 0.001-0.106 0.003-0.955 0.047-1.742 0.726-1.93 1.616-0.019 0.088-0.033 0.192-0.039 0.299l-0 0.005c-0.002 0.028-0.002 0.061-0.002 0.093 0 0.004 0 0.008 0 0.011v-0.001c0 1.118 0.932 2.028 2.078 2.028zM1.009 20.468h0.787v0.984h-0.788v2.192c0 0.029 0.024 0.052 0.054 0.052h4.144l0.014-0.072c0.003-0.017 0.006-0.034 0.010-0.051 0.008-0.038 0.016-0.075 0.026-0.112l0.006-0.026c0.012-0.046 0.026-0.090 0.040-0.136l0.014-0.040 0.032-0.093 0.020-0.050c0.029-0.074 0.048-0.118 0.067-0.162l-0.011 0.028 0.034-0.074c0.008-0.018 0.018-0.036 0.027-0.054l0.037-0.072 0.030-0.052c0.057-0.097 0.106-0.174 0.158-0.249l-0.009 0.013 0.054-0.073 0.030-0.040c0.024-0.031 0.048-0.062 0.074-0.092l0.013-0.016c0.030-0.035 0.061-0.070 0.092-0.104l0.030-0.032 0.067-0.068 0.040-0.038 0.062-0.058 0.044-0.038 0.063-0.053 0.046-0.038c0.028-0.022 0.064-0.050 0.101-0.077l0.011-0.008c0.022-0.016 0.045-0.032 0.068-0.046l0.048-0.033 0.072-0.046 0.048-0.029 0.082-0.046 0.042-0.024c0.038-0.020 0.078-0.039 0.117-0.058 0.003-0.002 0.006-0.004 0.010-0.005 0.042-0.021 0.086-0.040 0.13-0.058l0.134-0.052 0.053-0.018c0.008-0.004 0.036-0.013 0.064-0.022l0.020-0.005c0.071-0.023 0.165-0.048 0.262-0.069l0.021-0.004 0.060-0.014c0.061-0.013 0.141-0.025 0.222-0.034l0.013-0.001 0.058-0.006 0.101-0.008c0.016 0 0.032-0.002 0.049-0.002 0.045-0.003 0.098-0.004 0.151-0.004s0.106 0.001 0.158 0.004l-0.007-0c0.017 0 0.033 0.002 0.050 0.003 0.034 0.002 0.067 0.004 0.1 0.008 0.019 0.001 0.038 0.004 0.058 0.006 0.065 0.007 0.116 0.014 0.167 0.023l-0.017-0.002 0.085 0.014 0.061 0.013c0.096 0.020 0.172 0.039 0.246 0.061l-0.021-0.005 0.058 0.018c0.028 0.008 0.056 0.018 0.083 0.027l0.053 0.018 0.091 0.035 0.042 0.016c0.107 0.045 0.191 0.086 0.274 0.13l-0.017-0.008 0.042 0.023 0.082 0.046 0.048 0.029 0.072 0.046 0.049 0.032 0.067 0.048c0.044 0.030 0.080 0.058 0.116 0.087l-0.004-0.003 0.047 0.038c0.022 0.017 0.042 0.035 0.063 0.053l0.043 0.038 0.102 0.096 0.067 0.069 0.030 0.032c0.060 0.064 0.119 0.133 0.175 0.205l0.005 0.007 0.029 0.038c0.018 0.024 0.037 0.049 0.054 0.074l0.031 0.046c0.035 0.051 0.075 0.113 0.111 0.176l0.007 0.013 0.029 0.052 0.038 0.072 0.026 0.053 0.035 0.076 0.023 0.052c0.012 0.027 0.022 0.054 0.033 0.082l0.019 0.050c0.012 0.031 0.022 0.062 0.033 0.094l0.014 0.038c0.014 0.045 0.027 0.091 0.040 0.136l0.005 0.022c0.010 0.038 0.019 0.078 0.028 0.117l0.009 0.048 0.015 0.074h8.717v-14.624c0-0.272 0.226-0.493 0.504-0.493h7.294c0.012 0 0.050 0 0.074-0.044 0.007-0.011 0.011-0.024 0.011-0.039 0-0.017-0.006-0.033-0.016-0.046l0 0-1.578-2.31c-0.151-0.217-0.399-0.358-0.681-0.358-0.001 0-0.002 0-0.004 0h-13.172c-0 0-0 0-0.001 0-0.075 0-0.144 0.030-0.194 0.079l0-0-0.834 0.814c-0.233 0.227-0.551 0.367-0.902 0.367-0.002 0-0.004 0-0.006 0h-8.685c-0.003-0-0.006-0-0.009-0-0.442 0-0.802 0.355-0.808 0.796v12.628z"></path>
<path d="M3.875 9.838h6.17c0.714 0 1.294 0.566 1.294 1.262v2.87c0 0.696-0.581 1.262-1.294 1.262h-6.17c-0.713 0-1.293-0.566-1.293-1.262v-2.87c0-0.696 0.58-1.262 1.294-1.262zM3.59 13.97c0 0.152 0.128 0.278 0.285 0.278h6.17c0.001 0 0.002 0 0.003 0 0.154 0 0.279-0.124 0.282-0.277v-2.871c0-0.153-0.128-0.278-0.285-0.278h-6.17c-0.001 0-0.002 0-0.002 0-0.154 0-0.279 0.124-0.282 0.277v2.871z"></path>
</symbol>
<symbol id="icon-fullyIntegrated" viewBox="0 0 32 32">
<path d="M1.826 6.060h8.686c0 0 0 0 0.001 0 0.075 0 0.144-0.030 0.194-0.079l-0 0 0.834-0.813c0.233-0.228 0.551-0.368 0.903-0.368 0.002 0 0.003 0 0.005 0h13.172c0.003 0 0.006-0 0.009-0 0.626 0 1.178 0.312 1.511 0.789l0.004 0.006 1.578 2.31c0.224 0.328 0.245 0.747 0.054 1.094-0.191 0.338-0.548 0.563-0.958 0.563-0.002 0-0.004 0-0.007-0h-6.788v0.67h3.477c0.004-0 0.010-0 0.015-0 0.93 0 1.73 0.553 2.091 1.347l0.006 0.014 2.036 4.654 1.784 0.696c0.952 0.372 1.567 1.258 1.567 2.259v4.31c0 0.643-0.536 1.166-1.195 1.166h-2.075c-0.241 1.426-1.514 2.519-3.045 2.519s-2.805-1.093-3.045-2.52h-11.342c-0.242 1.428-1.515 2.52-3.046 2.52s-2.803-1.093-3.045-2.52h-4.144c-0.587 0-1.063-0.464-1.063-1.035v-15.805c0-0.982 0.818-1.781 1.826-1.781zM25.685 26.216c1.146 0 2.078-0.91 2.078-2.028s-0.933-2.027-2.078-2.027c-1.146 0-2.078 0.91-2.078 2.027s0.932 2.028 2.078 2.028zM21.024 23.696h1.615l0.014-0.073 0.010-0.050c0.008-0.038 0.018-0.077 0.027-0.115l0.006-0.024c0.012-0.046 0.025-0.090 0.040-0.136 0.003-0.013 0.008-0.026 0.013-0.039 0.024-0.072 0.041-0.119 0.060-0.167l-0.008 0.023 0.033-0.080 0.024-0.053 0.034-0.076 0.026-0.053 0.038-0.072 0.028-0.052 0.042-0.070 0.030-0.050 0.046-0.070 0.031-0.046c0.018-0.025 0.035-0.050 0.054-0.074l0.028-0.038c0.062-0.079 0.121-0.148 0.182-0.215l-0.002 0.003 0.030-0.030 0.067-0.070 0.040-0.037c0.052-0.051 0.107-0.1 0.164-0.147l0.005-0.004 0.046-0.036c0.029-0.024 0.066-0.052 0.103-0.079l0.009-0.007 0.068-0.047 0.048-0.032c0.024-0.016 0.048-0.030 0.073-0.046l0.048-0.029c0.026-0.016 0.054-0.030 0.081-0.046l0.042-0.024c0.018-0.010 0.057-0.030 0.096-0.049l0.023-0.010 0.009-0.004c0.043-0.021 0.086-0.040 0.13-0.058 0.014-0.006 0.029-0.011 0.042-0.017l0.091-0.035 0.052-0.018c0.097-0.035 0.22-0.070 0.345-0.097l0.021-0.004 0.061-0.013c0.061-0.013 0.141-0.025 0.222-0.034l0.013-0.001 0.058-0.006 0.1-0.008c0.016 0 0.033-0.002 0.050-0.002 0.045-0.003 0.098-0.004 0.151-0.004s0.106 0.001 0.159 0.004l-0.007-0c0.016 0 0.032 0.002 0.050 0.003 0.033 0.002 0.066 0.004 0.1 0.008 0.019 0.001 0.038 0.004 0.058 0.006 0.115 0.012 0.216 0.029 0.314 0.051l-0.018-0.003c0.146 0.031 0.268 0.065 0.388 0.107l-0.021-0.006 0.052 0.018 0.091 0.035 0.042 0.016c0.044 0.018 0.088 0.038 0.13 0.058l0.009 0.004c0.040 0.019 0.079 0.038 0.118 0.059l0.042 0.023c0.028 0.014 0.055 0.030 0.082 0.046l0.048 0.029 0.072 0.046 0.049 0.032 0.068 0.048c0.045 0.032 0.081 0.059 0.117 0.088l-0.004-0.003 0.046 0.036c0.062 0.053 0.117 0.102 0.171 0.152l-0.002-0.002 0.040 0.037 0.067 0.070 0.030 0.030c0.032 0.034 0.062 0.069 0.092 0.104l0.012 0.014c0.026 0.031 0.051 0.062 0.076 0.094l0.028 0.038 0.054 0.074 0.031 0.046 0.046 0.070 0.030 0.050 0.041 0.070 0.029 0.052 0.038 0.072 0.026 0.053c0.012 0.026 0.024 0.050 0.034 0.076l0.024 0.052c0.014 0.030 0.032 0.073 0.048 0.117l0.004 0.014 0.033 0.094 0.014 0.040c0.014 0.045 0.027 0.090 0.040 0.136l0.006 0.024c0.010 0.038 0.018 0.076 0.026 0.114l0.010 0.050 0.014 0.073h2.074c0.001 0 0.002 0 0.002 0 0.101 0 0.183-0.081 0.184-0.181v-2.063h-0.787v-0.984h0.787v-1.264c0-0.596-0.366-1.124-0.934-1.346l-1.888-0.736h-7.146v6.574zM21.024 16.138h6.48l-1.818-4.158c-0.206-0.454-0.655-0.763-1.176-0.763-0.003 0-0.006 0-0.009 0h-3.476v4.921zM8.252 26.216c1.146 0 2.078-0.91 2.078-2.028s-0.932-2.027-2.078-2.027c-0.036 0-0.071 0.001-0.106 0.003-0.955 0.047-1.742 0.726-1.93 1.616-0.019 0.088-0.033 0.192-0.039 0.299l-0 0.005c-0.002 0.028-0.002 0.061-0.002 0.093 0 0.004 0 0.008 0 0.011v-0.001c0 1.118 0.932 2.028 2.078 2.028zM1.009 20.468h0.787v0.984h-0.788v2.192c0 0.029 0.024 0.052 0.054 0.052h4.144l0.014-0.072c0.003-0.017 0.006-0.034 0.010-0.051 0.008-0.038 0.016-0.075 0.026-0.112l0.006-0.026c0.012-0.046 0.026-0.090 0.040-0.136l0.014-0.040 0.032-0.093 0.020-0.050c0.029-0.074 0.048-0.118 0.067-0.162l-0.011 0.028 0.034-0.074c0.008-0.018 0.018-0.036 0.027-0.054l0.037-0.072 0.030-0.052c0.057-0.097 0.106-0.174 0.158-0.249l-0.009 0.013 0.054-0.073 0.030-0.040c0.024-0.031 0.048-0.062 0.074-0.092l0.013-0.016c0.030-0.035 0.061-0.070 0.092-0.104l0.030-0.032 0.067-0.068 0.040-0.038 0.062-0.058 0.044-0.038 0.063-0.053 0.046-0.038c0.028-0.022 0.064-0.050 0.101-0.077l0.011-0.008c0.022-0.016 0.045-0.032 0.068-0.046l0.048-0.033 0.072-0.046 0.048-0.029 0.082-0.046 0.042-0.024c0.038-0.020 0.078-0.039 0.117-0.058 0.003-0.002 0.006-0.004 0.010-0.005 0.042-0.021 0.086-0.040 0.13-0.058l0.134-0.052 0.053-0.018c0.008-0.004 0.036-0.013 0.064-0.022l0.020-0.005c0.071-0.023 0.165-0.048 0.262-0.069l0.021-0.004 0.060-0.014c0.061-0.013 0.141-0.025 0.222-0.034l0.013-0.001 0.058-0.006 0.101-0.008c0.016 0 0.032-0.002 0.049-0.002 0.045-0.003 0.098-0.004 0.151-0.004s0.106 0.001 0.158 0.004l-0.007-0c0.017 0 0.033 0.002 0.050 0.003 0.034 0.002 0.067 0.004 0.1 0.008 0.019 0.001 0.038 0.004 0.058 0.006 0.065 0.007 0.116 0.014 0.167 0.023l-0.017-0.002 0.085 0.014 0.061 0.013c0.096 0.020 0.172 0.039 0.246 0.061l-0.021-0.005 0.058 0.018c0.028 0.008 0.056 0.018 0.083 0.027l0.053 0.018 0.091 0.035 0.042 0.016c0.107 0.045 0.191 0.086 0.274 0.13l-0.017-0.008 0.042 0.023 0.082 0.046 0.048 0.029 0.072 0.046 0.049 0.032 0.067 0.048c0.044 0.030 0.080 0.058 0.116 0.087l-0.004-0.003 0.047 0.038c0.022 0.017 0.042 0.035 0.063 0.053l0.043 0.038 0.102 0.096 0.067 0.069 0.030 0.032c0.060 0.064 0.119 0.133 0.175 0.205l0.005 0.007 0.029 0.038c0.018 0.024 0.037 0.049 0.054 0.074l0.031 0.046c0.035 0.051 0.075 0.113 0.111 0.176l0.007 0.013 0.029 0.052 0.038 0.072 0.026 0.053 0.035 0.076 0.023 0.052c0.012 0.027 0.022 0.054 0.033 0.082l0.019 0.050c0.012 0.031 0.022 0.062 0.033 0.094l0.014 0.038c0.014 0.045 0.027 0.091 0.040 0.136l0.005 0.022c0.010 0.038 0.019 0.078 0.028 0.117l0.009 0.048 0.015 0.074h8.717v-14.624c0-0.272 0.226-0.493 0.504-0.493h7.294c0.012 0 0.050 0 0.074-0.044 0.007-0.011 0.011-0.024 0.011-0.039 0-0.017-0.006-0.033-0.016-0.046l0 0-1.578-2.31c-0.151-0.217-0.399-0.358-0.681-0.358-0.001 0-0.002 0-0.004 0h-13.172c-0 0-0 0-0.001 0-0.075 0-0.144 0.030-0.194 0.079l0-0-0.834 0.814c-0.233 0.227-0.551 0.367-0.902 0.367-0.002 0-0.004 0-0.006 0h-8.685c-0.003-0-0.006-0-0.009-0-0.442 0-0.802 0.355-0.808 0.796v12.628z"></path>
<path d="M14.081 9.838h3.191c0.644 0 1.169 0.512 1.169 1.141v10.532c0 0.272-0.226 0.492-0.504 0.492h-4.52c-0.002 0-0.004 0-0.006 0-0.273 0-0.495-0.22-0.498-0.492v-10.532c0-0.63 0.523-1.141 1.168-1.141zM13.921 21.018h3.511v-5.786h-3.512v5.786zM13.921 14.248h3.511v-3.27c-0.001-0.087-0.071-0.157-0.158-0.157-0.001 0-0.001 0-0.002 0h-3.192c-0.088 0-0.16 0.070-0.16 0.157l0.001 3.268z"></path>
</symbol>
<symbol id="icon-alcove" viewBox="0 0 32 32">
<path d="M1.826 6.060h8.686c0 0 0 0 0.001 0 0.075 0 0.144-0.030 0.194-0.079l-0 0 0.834-0.813c0.233-0.228 0.551-0.368 0.903-0.368 0.002 0 0.003 0 0.005 0h13.172c0.003 0 0.006-0 0.009-0 0.626 0 1.178 0.312 1.511 0.789l0.004 0.006 1.578 2.31c0.224 0.328 0.245 0.747 0.054 1.094-0.191 0.338-0.548 0.563-0.958 0.563-0.002 0-0.004 0-0.007-0h-6.788v0.67h3.477c0.004-0 0.010-0 0.015-0 0.93 0 1.73 0.553 2.091 1.347l0.006 0.014 2.036 4.654 1.784 0.696c0.952 0.372 1.567 1.258 1.567 2.259v4.31c0 0.643-0.536 1.166-1.195 1.166h-2.075c-0.241 1.426-1.514 2.519-3.045 2.519s-2.805-1.093-3.045-2.52h-11.342c-0.242 1.428-1.515 2.52-3.046 2.52s-2.803-1.093-3.045-2.52h-4.144c-0.587 0-1.063-0.464-1.063-1.035v-15.805c0-0.982 0.818-1.781 1.826-1.781zM25.685 26.216c1.146 0 2.078-0.91 2.078-2.028s-0.933-2.027-2.078-2.027c-1.146 0-2.078 0.91-2.078 2.027s0.932 2.028 2.078 2.028zM21.024 23.696h1.615l0.014-0.073 0.010-0.050c0.008-0.038 0.018-0.077 0.027-0.115l0.006-0.024c0.012-0.046 0.025-0.090 0.040-0.136 0.003-0.013 0.008-0.026 0.013-0.039 0.024-0.072 0.041-0.119 0.060-0.167l-0.008 0.023 0.033-0.080 0.024-0.053 0.034-0.076 0.026-0.053 0.038-0.072 0.028-0.052 0.042-0.070 0.030-0.050 0.046-0.070 0.031-0.046c0.018-0.025 0.035-0.050 0.054-0.074l0.028-0.038c0.062-0.079 0.121-0.148 0.182-0.215l-0.002 0.003 0.030-0.030 0.067-0.070 0.040-0.037c0.052-0.051 0.107-0.1 0.164-0.147l0.005-0.004 0.046-0.036c0.029-0.024 0.066-0.052 0.103-0.079l0.009-0.007 0.068-0.047 0.048-0.032c0.024-0.016 0.048-0.030 0.073-0.046l0.048-0.029c0.026-0.016 0.054-0.030 0.081-0.046l0.042-0.024c0.018-0.010 0.057-0.030 0.096-0.049l0.023-0.010 0.009-0.004c0.043-0.021 0.086-0.040 0.13-0.058 0.014-0.006 0.029-0.011 0.042-0.017l0.091-0.035 0.052-0.018c0.097-0.035 0.22-0.070 0.345-0.097l0.021-0.004 0.061-0.013c0.061-0.013 0.141-0.025 0.222-0.034l0.013-0.001 0.058-0.006 0.1-0.008c0.016 0 0.033-0.002 0.050-0.002 0.045-0.003 0.098-0.004 0.151-0.004s0.106 0.001 0.159 0.004l-0.007-0c0.016 0 0.032 0.002 0.050 0.003 0.033 0.002 0.066 0.004 0.1 0.008 0.019 0.001 0.038 0.004 0.058 0.006 0.115 0.012 0.216 0.029 0.314 0.051l-0.018-0.003c0.146 0.031 0.268 0.065 0.388 0.107l-0.021-0.006 0.052 0.018 0.091 0.035 0.042 0.016c0.044 0.018 0.088 0.038 0.13 0.058l0.009 0.004c0.040 0.019 0.079 0.038 0.118 0.059l0.042 0.023c0.028 0.014 0.055 0.030 0.082 0.046l0.048 0.029 0.072 0.046 0.049 0.032 0.068 0.048c0.045 0.032 0.081 0.059 0.117 0.088l-0.004-0.003 0.046 0.036c0.062 0.053 0.117 0.102 0.171 0.152l-0.002-0.002 0.040 0.037 0.067 0.070 0.030 0.030c0.032 0.034 0.062 0.069 0.092 0.104l0.012 0.014c0.026 0.031 0.051 0.062 0.076 0.094l0.028 0.038 0.054 0.074 0.031 0.046 0.046 0.070 0.030 0.050 0.041 0.070 0.029 0.052 0.038 0.072 0.026 0.053c0.012 0.026 0.024 0.050 0.034 0.076l0.024 0.052c0.014 0.030 0.032 0.073 0.048 0.117l0.004 0.014 0.033 0.094 0.014 0.040c0.014 0.045 0.027 0.090 0.040 0.136l0.006 0.024c0.010 0.038 0.018 0.076 0.026 0.114l0.010 0.050 0.014 0.073h2.074c0.001 0 0.002 0 0.002 0 0.101 0 0.183-0.081 0.184-0.181v-2.063h-0.787v-0.984h0.787v-1.264c0-0.596-0.366-1.124-0.934-1.346l-1.888-0.736h-7.146v6.574zM21.024 16.138h6.48l-1.818-4.158c-0.206-0.454-0.655-0.763-1.176-0.763-0.003 0-0.006 0-0.009 0h-3.476v4.921zM8.252 26.216c1.146 0 2.078-0.91 2.078-2.028s-0.932-2.027-2.078-2.027c-0.036 0-0.071 0.001-0.106 0.003-0.955 0.047-1.742 0.726-1.93 1.616-0.019 0.088-0.033 0.192-0.039 0.299l-0 0.005c-0.002 0.028-0.002 0.061-0.002 0.093 0 0.004 0 0.008 0 0.011v-0.001c0 1.118 0.932 2.028 2.078 2.028zM1.009 20.468h0.787v0.984h-0.788v2.192c0 0.029 0.024 0.052 0.054 0.052h4.144l0.014-0.072c0.003-0.017 0.006-0.034 0.010-0.051 0.008-0.038 0.016-0.075 0.026-0.112l0.006-0.026c0.012-0.046 0.026-0.090 0.040-0.136l0.014-0.040 0.032-0.093 0.020-0.050c0.029-0.074 0.048-0.118 0.067-0.162l-0.011 0.028 0.034-0.074c0.008-0.018 0.018-0.036 0.027-0.054l0.037-0.072 0.030-0.052c0.057-0.097 0.106-0.174 0.158-0.249l-0.009 0.013 0.054-0.073 0.030-0.040c0.024-0.031 0.048-0.062 0.074-0.092l0.013-0.016c0.030-0.035 0.061-0.070 0.092-0.104l0.030-0.032 0.067-0.068 0.040-0.038 0.062-0.058 0.044-0.038 0.063-0.053 0.046-0.038c0.028-0.022 0.064-0.050 0.101-0.077l0.011-0.008c0.022-0.016 0.045-0.032 0.068-0.046l0.048-0.033 0.072-0.046 0.048-0.029 0.082-0.046 0.042-0.024c0.038-0.020 0.078-0.039 0.117-0.058 0.003-0.002 0.006-0.004 0.010-0.005 0.042-0.021 0.086-0.040 0.13-0.058l0.134-0.052 0.053-0.018c0.008-0.004 0.036-0.013 0.064-0.022l0.020-0.005c0.071-0.023 0.165-0.048 0.262-0.069l0.021-0.004 0.060-0.014c0.061-0.013 0.141-0.025 0.222-0.034l0.013-0.001 0.058-0.006 0.101-0.008c0.016 0 0.032-0.002 0.049-0.002 0.045-0.003 0.098-0.004 0.151-0.004s0.106 0.001 0.158 0.004l-0.007-0c0.017 0 0.033 0.002 0.050 0.003 0.034 0.002 0.067 0.004 0.1 0.008 0.019 0.001 0.038 0.004 0.058 0.006 0.065 0.007 0.116 0.014 0.167 0.023l-0.017-0.002 0.085 0.014 0.061 0.013c0.096 0.020 0.172 0.039 0.246 0.061l-0.021-0.005 0.058 0.018c0.028 0.008 0.056 0.018 0.083 0.027l0.053 0.018 0.091 0.035 0.042 0.016c0.107 0.045 0.191 0.086 0.274 0.13l-0.017-0.008 0.042 0.023 0.082 0.046 0.048 0.029 0.072 0.046 0.049 0.032 0.067 0.048c0.044 0.030 0.080 0.058 0.116 0.087l-0.004-0.003 0.047 0.038c0.022 0.017 0.042 0.035 0.063 0.053l0.043 0.038 0.102 0.096 0.067 0.069 0.030 0.032c0.060 0.064 0.119 0.133 0.175 0.205l0.005 0.007 0.029 0.038c0.018 0.024 0.037 0.049 0.054 0.074l0.031 0.046c0.035 0.051 0.075 0.113 0.111 0.176l0.007 0.013 0.029 0.052 0.038 0.072 0.026 0.053 0.035 0.076 0.023 0.052c0.012 0.027 0.022 0.054 0.033 0.082l0.019 0.050c0.012 0.031 0.022 0.062 0.033 0.094l0.014 0.038c0.014 0.045 0.027 0.091 0.040 0.136l0.005 0.022c0.010 0.038 0.019 0.078 0.028 0.117l0.009 0.048 0.015 0.074h8.717v-14.624c0-0.272 0.226-0.493 0.504-0.493h7.294c0.012 0 0.050 0 0.074-0.044 0.007-0.011 0.011-0.024 0.011-0.039 0-0.017-0.006-0.033-0.016-0.046l0 0-1.578-2.31c-0.151-0.217-0.399-0.358-0.681-0.358-0.001 0-0.002 0-0.004 0h-13.172c-0 0-0 0-0.001 0-0.075 0-0.144 0.030-0.194 0.079l0-0-0.834 0.814c-0.233 0.227-0.551 0.367-0.902 0.367-0.002 0-0.004 0-0.006 0h-8.685c-0.003-0-0.006-0-0.009-0-0.442 0-0.802 0.355-0.808 0.796v12.628z"></path>
<path d="M14.081 9.838h3.191c0.644 0 1.169 0.512 1.169 1.141v10.532c0 0.272-0.226 0.492-0.504 0.492h-4.52c-0.002 0-0.004 0-0.006 0-0.273 0-0.495-0.22-0.498-0.492v-10.532c0-0.63 0.523-1.141 1.168-1.141zM13.921 21.018h3.511v-5.786h-3.512v5.786zM13.921 14.248h3.511v-3.27c-0.001-0.087-0.071-0.157-0.158-0.157-0.001 0-0.001 0-0.002 0h-3.192c-0.088 0-0.16 0.070-0.16 0.157v3.268h0.001zM3.875 9.838h6.17c0.714 0 1.294 0.566 1.294 1.262v2.87c0 0.696-0.581 1.262-1.294 1.262h-6.17c-0.713 0-1.293-0.566-1.293-1.262v-2.87c0-0.696 0.58-1.262 1.294-1.262zM3.59 13.97c0 0.152 0.128 0.278 0.285 0.278h6.17c0.001 0 0.002 0 0.003 0 0.154 0 0.279-0.124 0.282-0.277v-2.871c0-0.153-0.128-0.278-0.285-0.278h-6.17c-0.001 0-0.002 0-0.002 0-0.154 0-0.279 0.124-0.282 0.277v2.871z"></path>
</symbol>
<symbol id="icon-shower" viewBox="0 0 32 32">
<path stroke-linejoin="round" stroke-linecap="round" stroke-miterlimit="4" stroke-width="2" d="M5.333 5.333l3.334 3.334M18 8.667c-1.188-1.158-2.813-1.872-4.605-1.872-3.645 0-6.6 2.955-6.6 6.6 0 1.792 0.714 3.417 1.873 4.606l-0.001-0.001M20 6.667l-13.333 13.333M18.667 22.667v0.013M13.333 21.333v0.014M17.333 17.333v0.014M21.333 13.333v0.014M14.667 26.667v0.013M22.667 18.667v0.013M26.667 14.667v0.013"></path>
</symbol>
<symbol id="icon-TV" viewBox="0 0 32 32">
<path stroke-linejoin="round" stroke-linecap="round" stroke-miterlimit="4" stroke-width="1.8" d="M24 26h-16c-2.216 0-4-1.784-4-4v-10c0-2.216 1.784-4 4-4h16c2.216 0 4 1.784 4 4v10c0 2.216-1.784 4-4 4zM12 30h8M16 8l6-6M16 8l-6-6"></path>
</symbol>
<symbol id="favorite" viewBox="0 0 32 32">
<path stroke-linejoin="round" stroke-linecap="round" stroke-miterlimit="4" stroke-width="3.0667" d="M27.787 6.147c-1.327-1.328-3.161-2.149-5.187-2.149s-3.859 0.821-5.187 2.149l-1.413 1.413-1.413-1.413c-1.327-1.327-3.161-2.148-5.187-2.148-4.051 0-7.335 3.284-7.335 7.335 0 2.026 0.821 3.859 2.148 5.187l11.787 11.787 11.787-11.787c1.328-1.327 2.149-3.161 2.149-5.187s-0.821-3.859-2.149-5.187l-0-0z"></path>
</symbol>
<symbol id="-beds" viewBox="0 0 32 32">
<path stroke-linejoin="round" stroke-linecap="round" stroke-miterlimit="4" stroke-width="2.24" d="M3 26v-7c0.006-2.207 1.793-3.994 3.999-4h18.001c2.207 0.006 3.994 1.793 4 3.999v7.001M24 15h-18v-6.501c0.005-1.379 1.122-2.496 2.5-2.499h15c1.379 0.005 2.496 1.122 2.499 2.5v6.5h-2z"></path>
<path stroke-linejoin="round" stroke-linecap="round" stroke-miterlimit="4" stroke-width="2.24" d="M3 26v-0.501c0.003-0.827 0.673-1.497 1.501-1.499h22.999c0.828 0.002 1.499 0.673 1.501 1.501v0.499M7 15v-1c0.004-1.103 0.897-1.996 2-2h5c1.103 0.004 1.996 0.897 2 2v0M16 14v1M16 14c0.003-1.103 0.897-1.997 2-2h5c1.103 0.004 1.996 0.897 2 2v1"></path>
</symbol>
<symbol id="icon-kitchen" viewBox="0 0 32 32">
<path stroke-linejoin="round" stroke-linecap="round" stroke-miterlimit="4" stroke-width="2.4" d="M25.333 20v-16c-6.421 6.125-6.696 11.091-6.666 16h6.666zM25.333 20v8h-1.333v-4M10.667 5.333v22.667M6.667 5.333v4c0 2.209 1.791 4 4 4s4-1.791 4-4v0-4"></path>
</symbol>
<symbol id="icon-engine" viewBox="0 0 32 32">
<path d="M26.36 9.64l0.013-0.013-4.96-4.96-1.413 1.413 2.813 2.813c-1.266 0.488-2.148 1.695-2.148 3.109 0 0.92 0.374 1.753 0.979 2.355l0 0c0.603 0.602 1.436 0.975 2.355 0.975 0.483 0 0.941-0.103 1.356-0.287l-0.021 0.008v9.614c0 0.736-0.597 1.333-1.333 1.333s-1.333-0.597-1.333-1.333v0-6c0-0 0-0.001 0-0.002 0-1.472-1.193-2.666-2.666-2.666-0.001 0-0.001 0-0.002 0h-1.333v-9.333c0-1.473-1.194-2.667-2.667-2.667v0h-8c-1.473 0-2.667 1.194-2.667 2.667v0 21.333h13.334v-10h2v6.667c0 1.841 1.492 3.333 3.333 3.333s3.333-1.492 3.333-3.333v0-12.667c0-0.92-0.373-1.76-0.973-2.36zM16 18v7.333h-8v-9.333h8v2zM16 13.333h-8v-6.666h8v6.666zM24 13.333c-0.736 0-1.333-0.597-1.333-1.333s0.597-1.333 1.333-1.333v0c0.736 0 1.333 0.597 1.333 1.333s-0.597 1.333-1.333 1.333v0z"></path>
</symbol>
<symbol id="icon-transmission" viewBox="0 0 32 32">
<path stroke-linejoin="round" stroke-linecap="round" stroke-miterlimit="4" stroke-width="2.4" d="M22.667 14.667h2c1.105 0 2-0.895 2-2s-0.895-2-2-2v0h-2v6.666M22.667 22.667v5.333h1.333c1.473 0 2.666-1.194 2.666-2.666s-1.194-2.666-2.666-2.666v0h-1.333zM4 6.667c-0.001 0.019-0.001 0.042-0.001 0.065 0 1.473 1.194 2.667 2.667 2.667s2.667-1.194 2.667-2.667c0-0.023-0-0.046-0.001-0.069l0 0.003c-0.037-1.445-1.216-2.602-2.666-2.602s-2.63 1.157-2.666 2.598l-0 0.003z"></path>
<path stroke-linejoin="round" stroke-linecap="round" stroke-miterlimit="4" stroke-width="2.4" d="M6.667 9.333v4c0 0 0 0.001 0 0.002 0 0.736 0.597 1.333 1.333 1.333h4M12 14.667v9.333c0 0.736 0.597 1.333 1.333 1.333v0h4M12 14.667h5.333"></path>
</symbol>
<symbol id="icon-adults" viewBox="0 0 32 32">
<path d="M9.067 24.133h-4.4c-0.267 0-0.4-0.133-0.534-0.266-0.133-0.134-0.266-0.4-0.133-0.667 0.8-2.267 2.8-3.6 5.067-3.6 2.8 0 5.066-2.4 5.066-5.2s-2.266-5.467-5.066-5.467-5.067 2.4-5.067 5.334c0 1.333 0.533 2.666 1.333 3.6-1.733 0.933-3.066 2.4-3.866 4.4-0.081 0.288-0.128 0.62-0.128 0.962 0 0.787 0.247 1.517 0.668 2.116l-0.008-0.012c0.667 0.934 1.6 1.467 2.667 1.467h4.4c0.8 0 1.333-0.533 1.333-1.333s-0.533-1.334-1.333-1.334zM6.667 14.267c0-1.467 1.066-2.534 2.4-2.534 1.333 0 2.4 1.2 2.4 2.534 0 1.466-1.067 2.533-2.4 2.533-1.334 0-2.4-1.2-2.4-2.533z"></path>
<path d="M30.533 21.467c-0.914-2.407-2.658-4.325-4.875-5.441l-0.057-0.026c1.2-1.067 1.867-2.667 1.867-4.533 0-3.467-2.667-6.267-5.867-6.267s-5.867 2.8-5.867 6.267c0 1.733 0.667 3.333 1.867 4.533-2.274 1.142-4.019 3.060-4.91 5.399l-0.023 0.069c-0.667 1.2-0.4 2.533 0.266 3.6 0.667 1.066 1.867 1.6 3.067 1.6h11.067c1.2 0 2.4-0.667 3.066-1.6 0.8-1.067 0.934-2.4 0.4-3.6zM18.267 11.6c0-2 1.466-3.6 3.2-3.6 1.733 0 3.2 1.6 3.2 3.6s-1.467 3.6-3.2 3.6c-1.734 0-3.2-1.733-3.2-3.6zM27.867 23.6c-0.134 0.133-0.4 0.533-0.8 0.533h-11.067c-0.533 0-0.8-0.4-0.8-0.533-0.153-0.192-0.246-0.438-0.246-0.706 0-0.18 0.042-0.35 0.116-0.501l-0.003 0.007c1.066-2.8 3.733-4.667 6.533-4.667s5.467 1.867 6.533 4.667c0.134 0.533-0.133 1.067-0.266 1.2z"></path>
</symbol>
<symbol id="icon-none" viewBox="0 0 32 32">
<path d="M25 13c-2.206 0-4 1.794-4 4s1.794 4 4 4c2.206 0 4-1.794 4-4s-1.794-4-4-4zM25 10v0c3.866 0 7 3.134 7 7s-3.134 7-7 7-7-3.134-7-7c0-3.866 3.134-7 7-7zM0 17c0-3.866 3.134-7 7-7s7 3.134 7 7c0 3.866-3.134 7-7 7s-7-3.134-7-7z"></path>
</symbol>
</defs>
</svg>
